<svg role="img" aria-label="Email pictogram" width="48" height="48" viewBox="0 0 48 48" fill="none" xmlns="http://www.w3.org/2000/svg">
<path fill-rule="evenodd" clip-rule="evenodd" d="M12.0823 16.322C12.4065 16.7692 12.3068 17.3944 11.8597 17.7186L5 22.6919V42.9999H43V22.6919L36.1403 17.7186C35.6932 17.3944 35.5935 16.7692 35.9177 16.322C36.2419 15.8749 36.8671 15.7752 37.3143 16.0994L44.587 21.3721C44.8465 21.5602 45 21.8613 45 22.1817V43.9999C45 44.5522 44.5523 44.9999 44 44.9999H4C3.44772 44.9999 3 44.5522 3 43.9999V22.1817C3 21.8613 3.15358 21.5602 3.41303 21.3721L10.6858 16.0994C11.1329 15.7752 11.7582 15.8749 12.0823 16.322Z" fill="#333333"/>
<path fill-rule="evenodd" clip-rule="evenodd" d="M10.2734 4C10.2734 3.44772 10.7212 3 11.2734 3H36.728C37.2803 3 37.728 3.44772 37.728 4V26.1818C37.728 26.7341 37.2803 27.1818 36.728 27.1818C36.1757 27.1818 35.728 26.7341 35.728 26.1818V5H12.2734V26.1818C12.2734 26.7341 11.8257 27.1818 11.2734 27.1818C10.7212 27.1818 10.2734 26.7341 10.2734 26.1818V4Z" fill="#333333"/>
<path fill-rule="evenodd" clip-rule="evenodd" d="M3.12229 21.703C3.38676 21.2181 3.99419 21.0395 4.47904 21.3039L44.4791 43.1221C44.9639 43.3866 45.1426 43.994 44.8781 44.4789C44.6137 44.9637 44.0062 45.1424 43.5214 44.8779L3.52134 23.0597C3.03649 22.7953 2.85783 22.1878 3.12229 21.703Z" fill="#333333"/>
<path fill-rule="evenodd" clip-rule="evenodd" d="M44.8781 21.703C45.1426 22.1878 44.9639 22.7953 44.4791 23.0597L24.479 33.9688C23.9942 34.2333 23.3868 34.0546 23.1223 33.5698C22.8578 33.0849 23.0365 32.4775 23.5213 32.213L43.5214 21.3039C44.0062 21.0395 44.6136 21.2181 44.8781 21.703Z" fill="#333333"/>
<path fill-rule="evenodd" clip-rule="evenodd" d="M17.543 13.0909C17.543 12.5387 17.9907 12.0909 18.543 12.0909H29.4521C30.0044 12.0909 30.4521 12.5387 30.4521 13.0909C30.4521 13.6432 30.0044 14.0909 29.4521 14.0909H18.543C17.9907 14.0909 17.543 13.6432 17.543 13.0909Z" fill="#333333"/>
<path fill-rule="evenodd" clip-rule="evenodd" d="M17.543 20.3636C17.543 19.8114 17.9907 19.3636 18.543 19.3636H29.4521C30.0044 19.3636 30.4521 19.8114 30.4521 20.3636C30.4521 20.9159 30.0044 21.3636 29.4521 21.3636H18.543C17.9907 21.3636 17.543 20.9159 17.543 20.3636Z" fill="#333333"/>
</svg>
