<svg width="613" height="91" viewBox="0 0 613 91" fill="none" xmlns="http://www.w3.org/2000/svg">
<path d="M147.4 51.9C147.4 42.3 154.2 35.3 164.5 35.3C174.5 35.3 181.6 42 181.6 51.9C181.6 61.7 174.6 68.6 164.5 68.6C154.3 68.6 147.4 61.5 147.4 51.9ZM172.8 51.9C172.8 46.6 169.2 43 164.5 43C159.5 43 156.1 46.8 156.1 51.9C156.1 56.9 159.5 60.8 164.5 60.8C169.2 60.8 172.8 57.2 172.8 51.9Z" fill="#1856ED"/>
<path d="M221.1 63.1L224.1 58.7C224.4 58.2 225.1 58.1 225.5 58.5C227.9 60.5 230.5 61.5 233.7 61.5C236.2 61.5 237.6 60.4 237.6 58.9C237.6 57.5 236 56.8 231.8 55.4C226.5 53.6 221.9 51.1 221.9 44.9C221.9 39.1 226.9 35.4 233.6 35.4C237.7 35.4 241.1 36.4 244.6 38.9C245 39.2 245.1 39.8 244.9 40.2L241.8 44.9C241.5 45.4 240.8 45.5 240.4 45.1C238.2 43.2 235.6 42.4 233.5 42.4C232.2 42.4 230.5 43.1 230.5 44.8C230.5 46.1 232.1 47 235.2 48.2C242.2 50.8 246.3 52.3 246.3 58.7C246.3 64.4 242.3 68.7 233.9 68.7C229.1 68.7 224.9 67.2 221.6 64.5C220.9 64.1 220.9 63.5 221.1 63.1Z" fill="#1856ED"/>
<path d="M253.7 57.8001V42.9001H250.8C250.3 42.9001 249.8 42.5001 249.8 41.9001V36.7001C249.8 36.2001 250.2 35.7001 250.8 35.7001H253.7V28.1001C253.7 27.6001 254.1 27.1001 254.7 27.1001H261.4C261.9 27.1001 262.4 27.5001 262.4 28.1001V35.7001H270.1C270.6 35.7001 271.1 36.1001 271.1 36.7001V42.0001C271.1 42.5001 270.7 43.0001 270.1 43.0001H262.4V56.6001C262.4 59.4001 263.1 60.7001 265.2 60.7001C266 60.7001 267.2 60.5001 268.3 60.0001C268.8 59.8001 269.4 60.1001 269.6 60.6001L271.2 65.7001C271.3 66.1001 271.1 66.6001 270.7 66.8001C268.9 67.7001 266.8 68.5001 262.9 68.5001C257.3 68.6001 253.7 65.1001 253.7 57.8001Z" fill="#1856ED"/>
<path d="M353 57.8001V42.9001H350.1C349.6 42.9001 349.1 42.5001 349.1 41.9001V36.7001C349.1 36.2001 349.5 35.7001 350.1 35.7001H353V28.1001C353 27.6001 353.4 27.1001 354 27.1001H360.7C361.2 27.1001 361.7 27.5001 361.7 28.1001V35.7001H369.4C369.9 35.7001 370.4 36.1001 370.4 36.7001V42.0001C370.4 42.5001 370 43.0001 369.4 43.0001H361.7V56.6001C361.7 59.4001 362.4 60.7001 364.5 60.7001C365.3 60.7001 366.5 60.5001 367.6 60.0001C368.1 59.8001 368.7 60.1001 368.9 60.6001L370.5 65.7001C370.6 66.1001 370.4 66.6001 370 66.8001C368.2 67.7001 366.1 68.5001 362.2 68.5001C356.7 68.6001 353 65.1001 353 57.8001Z" fill="#1856ED"/>
<path d="M186.9 35.8H193.6C194.1 35.8 194.6 36.2 194.6 36.8V40.1C197.3 36.9 201 35.3 205 35.3C211.8 35.3 216.7 39 216.7 48.9V67C216.7 67.5 216.3 68 215.7 68H209C208.5 68 208 67.6 208 67V51C208 44.9 205.8 43 201.8 43C197.5 43 194.6 46 194.6 51.8V67C194.6 67.5 194.2 68 193.6 68H186.9C186.4 68 185.9 67.6 185.9 67V36.7C185.9 36.2 186.4 35.8 186.9 35.8Z" fill="#1856ED"/>
<path d="M315.3 35.8H322C322.5 35.8 323 36.2 323 36.8V40.1C325.7 36.9 329.4 35.3 333.4 35.3C340.2 35.3 345.1 39 345.1 48.9V67C345.1 67.5 344.7 68 344.1 68H337.4C336.9 68 336.4 67.6 336.4 67V51C336.4 44.9 334.2 43 330.2 43C325.9 43 323 46 323 51.8V67C323 67.5 322.6 68 322 68H315.3C314.8 68 314.3 67.6 314.3 67V36.7C314.4 36.2 314.8 35.8 315.3 35.8Z" fill="#1856ED"/>
<path d="M274 52C274 42.3 280.5 35.3 289.1 35.3C293.1 35.3 296.4 36.9 298.7 39.7V36.8C298.7 36.3 299.1 35.8 299.7 35.8H306.4C306.9 35.8 307.4 36.2 307.4 36.8V67C307.4 67.5 307 68 306.4 68H300.1C299.6 68 299.1 67.6 299.1 67V63.9C296.8 66.9 293.6 68.6 289.3 68.6C280.5 68.6 274 61.9 274 52ZM299.2 52C299.2 46.8 295.6 43 291 43C286.3 43 282.8 46.5 282.8 52C282.8 57.1 286.2 60.8 291 60.8C295.4 60.8 299.2 57.3 299.2 52Z" fill="#1856ED"/>
<path d="M130.8 22.3C136.9 22.3 141.9 24.4 145.8 27.5C146.2 27.8 146.3 28.4 146 28.9L141.9 34.6C141.6 35.1 140.9 35.2 140.4 34.8C137.8 32.6 134.5 31.1 130.8 31.1C122.2 31.1 116.6 37.4 116.6 45.4C116.6 53.5 122.3 59.7 130.6 59.7C134.4 59.7 137.6 58.3 140.3 56C140.7 55.6 141.4 55.7 141.8 56.2L145.8 61.9C146.1 62.3 146 62.9 145.6 63.3C141.1 66.9 135.8 68.7 130.6 68.7C116.5 68.7 106.9 59.4 106.9 45.6C106.9 32 116 22.3 130.8 22.3Z" fill="#1856ED"/>
<path d="M557.8 52C557.8 42.1 564.7 35.3 574.7 35.3C578.9 35.3 583.3 36.6 586.6 39.4C587 39.7 587.1 40.3 586.8 40.7L583.4 45.4C583 45.9 582.3 46 581.9 45.5C580.2 43.9 577.9 42.9 575.3 42.9C570.1 42.9 566.6 46.5 566.6 51.8C566.6 57.1 570.2 60.7 575.3 60.7C578.1 60.7 580.4 59.7 582.1 58.1C582.5 57.7 583.2 57.8 583.6 58.2L587 63C587.3 63.4 587.2 64 586.9 64.3C584.1 66.8 580.1 68.5 574.5 68.5C564.7 68.6 557.8 61.8 557.8 52Z" fill="#1856ED"/>
<path d="M499.8 57.8001V42.9001H497C496.5 42.9001 496 42.5001 496 41.9001V36.7001C496 36.2001 496.4 35.7001 497 35.7001H499.9V28.1001C499.9 27.6001 500.3 27.1001 500.9 27.1001H507.6C508.1 27.1001 508.6 27.5001 508.6 28.1001V35.7001H516.3C516.8 35.7001 517.3 36.1001 517.3 36.7001V42.0001C517.3 42.5001 516.9 43.0001 516.3 43.0001H508.6V56.6001C508.6 59.4001 509.3 60.7001 511.4 60.7001C512.2 60.7001 513.4 60.5001 514.5 60.0001C515 59.8001 515.6 60.1001 515.8 60.6001L517.4 65.7001C517.5 66.1001 517.3 66.6001 516.9 66.8001C515.1 67.7001 513 68.5001 509.1 68.5001C503.5 68.6001 499.8 65.1001 499.8 57.8001Z" fill="#1856ED"/>
<path d="M594.8 57.8001V42.9001H592C591.5 42.9001 591 42.5001 591 41.9001V36.7001C591 36.2001 591.4 35.7001 592 35.7001H594.9V28.1001C594.9 27.6001 595.3 27.1001 595.9 27.1001H602.6C603.1 27.1001 603.6 27.5001 603.6 28.1001V35.7001H611.3C611.8 35.7001 612.3 36.1001 612.3 36.7001V42.0001C612.3 42.5001 611.9 43.0001 611.3 43.0001H603.6V56.6001C603.6 59.4001 604.3 60.7001 606.4 60.7001C607.2 60.7001 608.4 60.5001 609.5 60.0001C610 59.8001 610.6 60.1001 610.8 60.6001L612.4 65.7001C612.5 66.1001 612.3 66.6001 611.9 66.8001C610.1 67.7001 608 68.5001 604.1 68.5001C598.4 68.6001 594.8 65.1001 594.8 57.8001Z" fill="#1856ED"/>
<path d="M422.8 51.9C422.8 42.3 429.6 35.3 439.9 35.3C449.9 35.3 457 42 457 51.9C457 61.7 450 68.6 439.9 68.6C429.6 68.6 422.8 61.5 422.8 51.9ZM448.2 51.9C448.2 46.6 444.6 43 439.9 43C434.9 43 431.5 46.8 431.5 51.9C431.5 56.9 434.9 60.8 439.9 60.8C444.5 60.8 448.2 57.2 448.2 51.9Z" fill="#1856ED"/>
<path d="M462.3 35.6001H469C469.5 35.6001 470 36.0001 470 36.6001V39.9001C472.7 36.7001 476.4 35.1001 480.4 35.1001C487.2 35.1001 492.1 38.8001 492.1 48.7001V66.8001C492.1 67.3001 491.7 67.8001 491.1 67.8001H484.4C483.9 67.8001 483.4 67.4001 483.4 66.8001V50.8001C483.4 44.7001 481.2 42.8001 477.2 42.8001C472.9 42.8001 470 45.8001 470 51.6001V66.8001C470 67.3001 469.6 67.8001 469 67.8001H462.3C461.8 67.8001 461.3 67.4001 461.3 66.8001V36.6001C461.3 36.0001 461.7 35.6001 462.3 35.6001Z" fill="#1856ED"/>
<path d="M519.8 52C519.8 42.3 526.3 35.3 534.9 35.3C538.9 35.3 542.2 36.9 544.5 39.7V36.8C544.5 36.3 544.9 35.8 545.5 35.8H552.2C552.7 35.8 553.2 36.2 553.2 36.8V67C553.2 67.5 552.8 68 552.2 68H545.9C545.4 68 544.9 67.6 544.9 67V63.9C542.6 66.9 539.4 68.6 535.1 68.6C526.3 68.6 519.8 61.9 519.8 52ZM544.9 52C544.9 46.8 541.3 43 536.7 43C532 43 528.5 46.5 528.5 52C528.5 57.1 531.9 60.8 536.7 60.8C541.2 60.8 544.9 57.3 544.9 52Z" fill="#1856ED"/>
<path d="M406.1 22.3C412.2 22.3 417.2 24.4 421.1 27.5C421.5 27.8 421.6 28.4 421.3 28.9L417.2 34.6C416.9 35.1 416.2 35.2 415.7 34.8C413.1 32.6 409.8 31.1 406.1 31.1C397.5 31.1 391.9 37.4 391.9 45.4C391.9 53.5 397.6 59.7 405.9 59.7C409.7 59.7 412.9 58.3 415.6 56C416 55.6 416.7 55.7 417.1 56.2L421.1 61.9C421.4 62.3 421.3 62.9 420.9 63.3C416.4 66.9 411.1 68.7 405.9 68.7C391.8 68.7 382.2 59.4 382.2 45.6C382.3 32 391.3 22.3 406.1 22.3Z" fill="#1856ED"/>
<path d="M42 90.8C17 90.8 0 70.4 0 48.7C0 26.7 17.3 7.70005 40.4 6.80005C41.3 6.80005 42.1 7.50005 42.1 8.40005V15.1C42.1 16 41.4 16.7001 40.6 16.7001C23.6 17.6001 10 31.4001 10 48.8001C10 65.7001 23.4 80.9001 42.1 80.9001C60.3 80.9001 73.3 66.4001 74 50.3001C74 49.4001 74.7 48.8001 75.6 48.8001H82.3C83.2 48.8001 83.9 49.6 83.9 50.5C83.1 71.8 65.9 90.8 42 90.8Z" fill="#1856ED"/>
<path d="M42.1 68.5C30.9 68.5 22.3 59.6 22.3 48.7C22.3 38.5 30.2 30 40.4 29.1C41.3 29 42.1 29.8 42.1 30.7V37.4C42.1 38.2 41.5 38.9 40.7 39C35.8 39.7 32.2 43.9 32.2 48.6C32.2 54 36.4 58.5 42.1 58.5C46.8 58.5 51 54.9 51.7 50C51.8 49.2 52.5 48.6 53.3 48.6H60C60.9 48.6 61.7 49.4 61.6 50.3C60.8 60.5 52.4 68.5 42.1 68.5Z" fill="#1856ED"/>
<path d="M80.9 40.5C80.1 24.2 67.1 10.7 50.3 9.9C49.4 9.9 48.8 9.2 48.8 8.3V1.6C48.8 0.699998 49.6 0 50.5 0C72.3 0.8 90 18.3 90.9 40.4C90.9 41.3 90.2 42.1 89.3 42.1H82.6C81.7 42.1 81 41.4 80.9 40.5Z" fill="#FF9E1A"/>
<path d="M50.6 32.4C49.6 32.2 48.8 31.4 48.8 30.6V24C48.8 23.1 49.6 22.3 50.5 22.4C60.2 23.2 67.6 31 68.5 40.3C68.6 41.2 67.8 42 66.9 42H59.9C59.2 42 58.7 41.5 58.6 40.9C58.1 37 55.1 33.2 50.6 32.4Z" fill="#FF9E1A"/>
</svg>
