<svg role="img" aria-label="Websites pictogram" width="48" height="48" viewBox="0 0 48 48" fill="none" xmlns="http://www.w3.org/2000/svg">
<path fill-rule="evenodd" clip-rule="evenodd" d="M41.2093 14.6985H4V12.6985H41.2093V14.6985Z" fill="#333333"/>
<path fill-rule="evenodd" clip-rule="evenodd" d="M3 7C3 5.89543 3.89543 5 5 5H40.2093C41.3139 5 42.2093 5.89543 42.2093 7V19.5349C42.2093 20.0872 41.7616 20.5349 41.2093 20.5349C40.657 20.5349 40.2093 20.0872 40.2093 19.5349V7L5 7V35.7939H30.0465C30.5988 35.7939 31.0465 36.2416 31.0465 36.7939C31.0465 37.3462 30.5988 37.7939 30.0465 37.7939H5C3.89543 37.7939 3 36.8985 3 35.7939V7Z" fill="#333333"/>
<path d="M8.53308 8.56616C7.84877 8.56616 7.25 9.16493 7.25 9.84924C7.25 10.5336 7.84877 11.1323 8.53308 11.1323C9.21739 11.1323 9.81616 10.5336 9.81616 9.84924C9.81616 9.16493 9.21739 8.56616 8.53308 8.56616Z" fill="#333333"/>
<path d="M13.6659 8.56616C12.9816 8.56616 12.3828 9.16493 12.3828 9.84924C12.3828 10.5336 12.9816 11.1323 13.6659 11.1323C14.3502 11.1323 14.949 10.5336 14.949 9.84924C14.949 9.16493 14.3502 8.56616 13.6659 8.56616Z" fill="#333333"/>
<path fill-rule="evenodd" clip-rule="evenodd" d="M32.6045 21.4653C32.4674 21.4653 32.3163 21.5239 32.1905 21.6612C32.062 21.8014 31.9766 22.0087 31.9766 22.2412V38.2243C31.9766 38.4568 32.062 38.6642 32.1905 38.8043C32.3163 38.9416 32.4674 39.0002 32.6045 39.0002H42.3719C42.509 39.0002 42.66 38.9416 42.7859 38.8043C42.9144 38.6642 42.9998 38.4568 42.9998 38.2243V22.2412C42.9998 22.0087 42.9144 21.8014 42.7859 21.6612C42.66 21.5239 42.509 21.4653 42.3719 21.4653H32.6045ZM30.7162 20.3098C31.201 19.7809 31.878 19.4653 32.6045 19.4653H42.3719C43.0983 19.4653 43.7754 19.7809 44.2602 20.3098C44.7423 20.8357 44.9998 21.5317 44.9998 22.2412V38.2243C44.9998 38.9338 44.7423 39.6299 44.2602 40.1558C43.7754 40.6846 43.0983 41.0002 42.3719 41.0002H32.6045C31.878 41.0002 31.201 40.6846 30.7162 40.1558C30.2341 39.6299 29.9766 38.9338 29.9766 38.2243V22.2412C29.9766 21.5317 30.2341 20.8357 30.7162 20.3098Z" fill="#333333"/>
<path d="M37.5618 37.3364C38.0533 37.3364 38.4517 36.9389 38.4517 36.4485C38.4517 35.9581 38.0533 35.5605 37.5618 35.5605C37.0703 35.5605 36.6719 35.9581 36.6719 36.4485C36.6719 36.9389 37.0703 37.3364 37.5618 37.3364Z" fill="#333333"/>
<path fill-rule="evenodd" clip-rule="evenodd" d="M19 40.8606C19 40.3083 19.4477 39.8606 20 39.8606H26C26.5523 39.8606 27 40.3083 27 40.8606C27 41.4129 26.5523 41.8606 26 41.8606H20C19.4477 41.8606 19 41.4129 19 40.8606Z" fill="#333333"/>
</svg>
