<svg width="2000" height="500" viewBox="0 0 2000 500" fill="none" xmlns="http://www.w3.org/2000/svg">
<path d="M542.962 267.724C542.962 239.999 562.705 219.912 592.301 219.912C621.172 219.912 641.45 239.235 641.45 267.724C641.45 296.212 621.172 315.574 592.301 315.574C562.705 315.574 542.962 295.41 542.962 267.724ZM616.207 267.724C616.207 252.448 605.973 242.099 592.301 242.099C577.904 242.099 568.204 253.098 568.204 267.724C568.204 282.35 578.095 293.31 592.301 293.31C605.591 293.31 616.207 282.885 616.207 267.724Z" fill="white"/>
<path d="M755.404 299.955L764.149 287.352C764.368 287.037 764.65 286.77 764.977 286.569C765.303 286.368 765.668 286.236 766.048 286.183C766.428 286.129 766.815 286.154 767.185 286.257C767.555 286.36 767.899 286.537 768.197 286.779C774.706 292.459 783.084 295.533 791.721 295.41C798.939 295.41 802.91 292.393 802.91 287.772C802.91 283.953 798.175 281.7 786.222 277.729C770.947 272.611 757.542 265.394 757.542 247.369C757.542 230.681 771.978 219.873 791.148 219.873C802.479 219.635 813.574 223.124 822.73 229.802C823.325 230.219 823.733 230.851 823.868 231.565C824.004 232.278 823.856 233.016 823.456 233.621L814.558 247.14C814.336 247.468 814.047 247.745 813.71 247.955C813.373 248.164 812.997 248.3 812.604 248.354C812.212 248.408 811.812 248.378 811.432 248.268C811.051 248.157 810.698 247.968 810.395 247.713C804.854 242.979 797.86 240.284 790.575 240.075C786.757 240.075 781.83 241.984 781.83 246.911C781.83 250.73 786.413 253.364 795.502 256.763C815.627 264.172 827.389 268.564 827.389 286.932C827.389 303.277 815.933 315.803 791.53 315.803C778.656 315.993 766.106 311.76 755.977 303.812C755.396 303.371 755.011 302.721 754.904 302C754.797 301.279 754.976 300.545 755.404 299.955Z" fill="white"/>
<path d="M849.157 284.794V241.908H840.947C840.208 241.908 839.498 241.615 838.976 241.092C838.453 240.569 838.159 239.86 838.159 239.12V223.845C838.159 223.106 838.453 222.397 838.976 221.874C839.498 221.351 840.208 221.057 840.947 221.057H849.157V199.137C849.152 198.77 849.221 198.405 849.359 198.064C849.497 197.723 849.703 197.414 849.963 197.154C850.222 196.895 850.532 196.69 850.872 196.551C851.213 196.413 851.578 196.344 851.945 196.349H871.039C871.406 196.349 871.768 196.421 872.106 196.561C872.445 196.702 872.752 196.907 873.011 197.166C873.27 197.425 873.475 197.732 873.615 198.07C873.755 198.408 873.827 198.771 873.827 199.137V221.057H896.091C896.83 221.057 897.539 221.351 898.062 221.874C898.585 222.397 898.879 223.106 898.879 223.845V239.12C898.879 239.86 898.585 240.569 898.062 241.092C897.539 241.615 896.83 241.908 896.091 241.908H873.827V281.204C873.827 289.377 875.889 293.157 881.77 293.157C884.892 293.025 887.967 292.353 890.859 291.171C891.222 291.001 891.617 290.912 892.017 290.911C892.417 290.909 892.813 290.995 893.177 291.162C893.541 291.33 893.863 291.574 894.123 291.879C894.382 292.184 894.572 292.542 894.678 292.928L899.299 307.669C899.505 308.29 899.479 308.965 899.226 309.568C898.973 310.172 898.511 310.664 897.924 310.953C890.994 314.47 883.27 316.128 875.507 315.765C859.583 315.574 849.157 305.645 849.157 284.794Z" fill="white"/>
<path d="M1135.53 284.794V241.908H1127.28C1126.54 241.908 1125.83 241.615 1125.31 241.092C1124.79 240.569 1124.5 239.86 1124.5 239.12V223.845C1124.5 223.106 1124.79 222.397 1125.31 221.874C1125.83 221.351 1126.54 221.057 1127.28 221.057H1135.53V199.137C1135.53 198.77 1135.6 198.405 1135.73 198.064C1135.87 197.723 1136.08 197.414 1136.34 197.154C1136.6 196.895 1136.91 196.69 1137.25 196.551C1137.59 196.413 1137.95 196.344 1138.32 196.349H1157.41C1157.78 196.349 1158.14 196.421 1158.48 196.562C1158.81 196.703 1159.12 196.909 1159.37 197.168C1159.63 197.427 1159.83 197.735 1159.97 198.073C1160.1 198.411 1160.17 198.773 1160.16 199.137V221.057H1182.43C1183.17 221.057 1183.88 221.351 1184.4 221.874C1184.92 222.397 1185.22 223.106 1185.22 223.845V239.12C1185.22 239.86 1184.92 240.569 1184.4 241.092C1183.88 241.615 1183.17 241.908 1182.43 241.908H1160.16V281.204C1160.16 289.377 1162.26 293.157 1168.15 293.157C1171.25 293.027 1174.32 292.355 1177.2 291.171C1177.56 291.008 1177.95 290.924 1178.35 290.926C1178.75 290.927 1179.14 291.015 1179.5 291.181C1179.87 291.348 1180.19 291.589 1180.45 291.891C1180.71 292.192 1180.9 292.546 1181.01 292.928L1185.64 307.669C1185.84 308.29 1185.82 308.965 1185.56 309.568C1185.31 310.172 1184.85 310.664 1184.26 310.953C1177.33 314.47 1169.61 316.128 1161.84 315.765C1145.96 315.574 1135.53 305.645 1135.53 284.794Z" fill="white"/>
<path d="M656.687 221.21H675.972C676.712 221.21 677.421 221.504 677.943 222.027C678.466 222.55 678.76 223.259 678.76 223.998V233.622C682.416 229.243 687.006 225.738 692.194 223.366C697.381 220.993 703.035 219.813 708.738 219.912C728.482 219.912 742.344 230.529 742.344 258.979V311.221C742.344 311.587 742.272 311.949 742.132 312.288C741.992 312.626 741.786 312.933 741.527 313.192C741.269 313.451 740.961 313.656 740.623 313.796C740.285 313.936 739.922 314.008 739.556 314.008H720.271C719.532 314.008 718.822 313.715 718.3 313.192C717.777 312.669 717.483 311.96 717.483 311.221V265.394C717.483 247.751 711.22 242.252 699.649 242.252C687.123 242.252 678.76 250.959 678.76 267.686V311.374C678.76 312.113 678.466 312.822 677.943 313.345C677.421 313.867 676.712 314.161 675.972 314.161H656.687C655.948 314.161 655.239 313.867 654.716 313.345C654.193 312.822 653.899 312.113 653.899 311.374V223.922C653.919 223.196 654.222 222.506 654.742 222C655.263 221.493 655.961 221.21 656.687 221.21V221.21Z" fill="white"/>
<path d="M1026.81 221.21H1046.21C1046.95 221.21 1047.66 221.504 1048.18 222.027C1048.7 222.55 1049 223.259 1049 223.998V233.622C1052.65 229.243 1057.24 225.738 1062.43 223.366C1067.62 220.993 1073.27 219.813 1078.98 219.912C1098.72 219.912 1112.54 230.529 1112.54 258.979V311.221C1112.54 311.96 1112.25 312.669 1111.73 313.192C1111.2 313.715 1110.5 314.008 1109.76 314.008H1090.47C1089.73 314.008 1089.02 313.715 1088.5 313.192C1087.98 312.669 1087.68 311.96 1087.68 311.221V265.394C1087.68 247.751 1081.46 242.252 1069.85 242.252C1057.32 242.252 1049 250.959 1049 267.686V311.374C1049 312.113 1048.7 312.822 1048.18 313.345C1047.66 313.867 1046.95 314.161 1046.21 314.161H1026.93C1026.19 314.161 1025.48 313.867 1024.95 313.345C1024.43 312.822 1024.14 312.113 1024.14 311.374V223.922C1024.16 223.215 1024.44 222.542 1024.94 222.038C1025.44 221.535 1026.1 221.239 1026.81 221.21V221.21Z" fill="white"/>
<path d="M907.777 267.915C907.777 239.808 926.566 219.911 951.426 219.911C956.696 219.776 961.929 220.836 966.73 223.012C971.532 225.188 975.779 228.424 979.151 232.476V223.921C979.151 223.555 979.223 223.193 979.363 222.854C979.503 222.516 979.709 222.209 979.968 221.95C980.227 221.691 980.534 221.486 980.872 221.346C981.21 221.206 981.573 221.134 981.939 221.134H1001.22C1001.96 221.134 1002.67 221.427 1003.2 221.95C1003.72 222.473 1004.01 223.182 1004.01 223.921V311.144C1004.01 311.883 1003.72 312.592 1003.2 313.115C1002.67 313.638 1001.96 313.932 1001.22 313.932H983.047C982.307 313.932 981.598 313.638 981.075 313.115C980.552 312.592 980.259 311.883 980.259 311.144V302.246C977.004 306.621 972.725 310.131 967.798 312.468C962.872 314.805 957.447 315.898 951.999 315.65C926.566 315.574 907.777 296.48 907.777 267.915ZM980.335 267.915C980.335 252.907 970.101 241.908 956.811 241.908C943.521 241.908 933.096 251.952 933.096 267.915C933.096 282.694 942.796 293.119 956.811 293.119C960.01 293.072 963.167 292.381 966.094 291.087C969.02 289.793 971.656 287.923 973.844 285.589C976.032 283.255 977.728 280.504 978.83 277.5C979.932 274.496 980.418 271.301 980.259 268.105L980.335 267.915Z" fill="white"/>
<path d="M495.035 182.449C510.708 182.286 525.95 187.578 538.15 197.419C538.691 197.879 539.044 198.523 539.143 199.227C539.241 199.93 539.078 200.646 538.684 201.238L526.846 217.811C526.614 218.135 526.317 218.406 525.974 218.608C525.631 218.811 525.25 218.939 524.855 218.986C524.459 219.032 524.059 218.997 523.678 218.88C523.298 218.763 522.946 218.568 522.645 218.308C515.008 211.535 505.166 207.775 494.958 207.73C470.174 207.73 454.135 225.754 454.135 249.049C454.135 272.344 470.518 290.293 494.576 290.293C504.906 290.31 514.867 286.454 522.492 279.486C522.794 279.223 523.147 279.025 523.529 278.905C523.911 278.784 524.314 278.745 524.712 278.788C525.11 278.831 525.495 278.955 525.842 279.154C526.19 279.353 526.492 279.622 526.731 279.944L538.188 296.25C538.599 296.836 538.772 297.556 538.673 298.265C538.574 298.974 538.209 299.619 537.653 300.069C525.469 310.115 510.177 315.622 494.385 315.65C453.753 315.65 426.028 288.919 426.028 248.973C426.295 210.479 452.34 182.449 495.035 182.449Z" fill="white"/>
<path d="M1725.43 267.915C1725.43 239.235 1745.37 219.912 1774.01 219.912C1786.47 219.695 1798.63 223.827 1808.38 231.598C1808.91 232.063 1809.26 232.709 1809.35 233.413C1809.44 234.116 1809.27 234.829 1808.87 235.416L1799.14 249.011C1798.9 249.347 1798.59 249.628 1798.24 249.835C1797.88 250.042 1797.48 250.169 1797.07 250.209C1796.66 250.249 1796.25 250.2 1795.86 250.066C1795.47 249.932 1795.12 249.716 1794.82 249.432C1789.66 244.575 1782.81 241.917 1775.73 242.023C1760.72 242.023 1750.67 252.448 1750.67 267.647C1750.45 271.02 1750.94 274.401 1752.11 277.571C1753.29 280.741 1755.11 283.627 1757.48 286.042C1759.84 288.457 1762.69 290.346 1765.83 291.586C1768.98 292.825 1772.35 293.386 1775.73 293.234C1779.33 293.316 1782.91 292.683 1786.27 291.372C1789.62 290.061 1792.69 288.098 1795.28 285.596C1795.58 285.318 1795.94 285.107 1796.32 284.976C1796.71 284.846 1797.12 284.799 1797.53 284.838C1797.94 284.878 1798.33 285.003 1798.69 285.206C1799.04 285.41 1799.35 285.685 1799.59 286.016L1809.45 299.802C1809.85 300.383 1810.02 301.089 1809.95 301.79C1809.87 302.491 1809.54 303.141 1809.03 303.621C1801.04 310.839 1789.51 315.612 1773.24 315.612C1745.56 315.574 1725.43 296.48 1725.43 267.915Z" fill="white"/>
<path d="M1558.55 284.794V241.908H1550.3C1549.56 241.908 1548.85 241.615 1548.33 241.092C1547.8 240.569 1547.51 239.86 1547.51 239.12V223.845C1547.51 223.106 1547.8 222.397 1548.33 221.874C1548.85 221.351 1549.56 221.057 1550.3 221.057H1558.51V199.137C1558.51 198.771 1558.58 198.408 1558.72 198.07C1558.86 197.732 1559.07 197.425 1559.33 197.166C1559.58 196.907 1559.89 196.702 1560.23 196.561C1560.57 196.421 1560.93 196.349 1561.3 196.349H1580.58C1580.95 196.344 1581.31 196.413 1581.65 196.551C1581.99 196.69 1582.3 196.895 1582.56 197.154C1582.82 197.414 1583.03 197.723 1583.17 198.064C1583.31 198.405 1583.37 198.77 1583.37 199.137V221.057H1605.63C1606.37 221.057 1607.08 221.351 1607.6 221.874C1608.13 222.397 1608.42 223.106 1608.42 223.845V239.12C1608.42 239.86 1608.13 240.569 1607.6 241.092C1607.08 241.615 1606.37 241.908 1605.63 241.908H1583.37V281.204C1583.37 289.377 1585.47 293.157 1591.35 293.157C1594.46 293.027 1597.52 292.355 1600.4 291.171C1600.76 291.008 1601.16 290.924 1601.56 290.926C1601.96 290.927 1602.35 291.015 1602.71 291.181C1603.07 291.348 1603.39 291.589 1603.65 291.891C1603.92 292.192 1604.11 292.546 1604.22 292.928L1608.84 307.669C1609.03 308.291 1609 308.959 1608.75 309.559C1608.5 310.159 1608.04 310.652 1607.47 310.953C1600.54 314.47 1592.81 316.128 1585.05 315.765C1569.01 315.574 1558.55 305.645 1558.55 284.794Z" fill="white"/>
<path d="M1832.24 284.794V241.908H1824.03C1823.29 241.908 1822.59 241.615 1822.06 241.092C1821.54 240.569 1821.25 239.86 1821.25 239.12V223.845C1821.25 223.106 1821.54 222.397 1822.06 221.874C1822.59 221.351 1823.29 221.057 1824.03 221.057H1832.24V199.137C1832.24 198.771 1832.32 198.408 1832.46 198.07C1832.6 197.732 1832.8 197.424 1833.06 197.166C1833.32 196.907 1833.63 196.702 1833.97 196.561C1834.3 196.421 1834.67 196.349 1835.03 196.349H1854.32C1854.68 196.349 1855.05 196.421 1855.38 196.561C1855.72 196.702 1856.03 196.907 1856.29 197.166C1856.55 197.424 1856.75 197.732 1856.89 198.07C1857.03 198.408 1857.11 198.771 1857.11 199.137V221.057H1879.37C1880.11 221.057 1880.82 221.351 1881.34 221.874C1881.86 222.397 1882.16 223.106 1882.16 223.845V239.12C1882.16 239.86 1881.86 240.569 1881.34 241.092C1880.82 241.615 1880.11 241.908 1879.37 241.908H1857.11V281.204C1857.11 289.377 1859.21 293.157 1865.09 293.157C1868.2 293.021 1871.26 292.349 1874.14 291.171C1874.5 290.994 1874.89 290.9 1875.3 290.895C1875.7 290.89 1876.1 290.975 1876.46 291.143C1876.83 291.311 1877.15 291.558 1877.41 291.867C1877.67 292.176 1877.86 292.538 1877.96 292.928L1882.62 307.669C1882.8 308.291 1882.77 308.959 1882.52 309.559C1882.27 310.159 1881.82 310.652 1881.24 310.953C1874.31 314.47 1866.59 316.128 1858.82 315.765C1842.67 315.574 1832.24 305.645 1832.24 284.794Z" fill="white"/>
<path d="M1336.44 267.724C1336.44 239.999 1356.19 219.912 1385.78 219.912C1414.61 219.912 1434.93 239.235 1434.93 267.724C1434.93 296.212 1414.61 315.574 1385.78 315.574C1356.19 315.574 1336.44 295.41 1336.44 267.724ZM1409.69 267.724C1409.69 252.448 1399.45 242.099 1385.78 242.099C1371.38 242.099 1361.68 253.098 1361.68 267.724C1361.68 282.35 1371.58 293.31 1385.78 293.31C1399.07 293.31 1409.69 282.885 1409.69 267.724Z" fill="white"/>
<path d="M1450.25 220.752H1469.53C1470.27 220.752 1470.98 221.046 1471.5 221.568C1472.02 222.091 1472.32 222.8 1472.32 223.54V233.163C1475.97 228.777 1480.56 225.265 1485.75 222.886C1490.93 220.507 1496.59 219.321 1502.3 219.415C1522.04 219.415 1535.9 230.032 1535.9 258.521V310.762C1535.9 311.128 1535.83 311.491 1535.69 311.829C1535.55 312.168 1535.34 312.475 1535.09 312.734C1534.83 312.993 1534.52 313.198 1534.18 313.338C1533.84 313.478 1533.48 313.55 1533.11 313.55H1514.02C1513.28 313.55 1512.57 313.256 1512.05 312.734C1511.53 312.211 1511.23 311.502 1511.23 310.762V264.936C1511.23 247.293 1504.97 241.794 1493.4 241.794C1480.87 241.794 1472.51 250.501 1472.51 267.189V310.915C1472.51 311.655 1472.22 312.363 1471.69 312.886C1471.17 313.409 1470.46 313.703 1469.72 313.703H1450.25C1449.51 313.703 1448.8 313.409 1448.27 312.886C1447.75 312.363 1447.46 311.655 1447.46 310.915V223.54C1447.46 222.8 1447.75 222.091 1448.27 221.568C1448.8 221.046 1449.51 220.752 1450.25 220.752V220.752Z" fill="white"/>
<path d="M1616.02 267.915C1616.02 239.808 1634.81 219.911 1659.67 219.911C1664.93 219.776 1670.16 220.837 1674.96 223.013C1679.75 225.189 1683.99 228.424 1687.36 232.476V223.921C1687.36 223.182 1687.65 222.473 1688.17 221.95C1688.7 221.427 1689.4 221.134 1690.14 221.134H1709.24C1709.98 221.134 1710.69 221.427 1711.21 221.95C1711.73 222.473 1712.03 223.182 1712.03 223.921V311.144C1712.03 311.883 1711.73 312.592 1711.21 313.115C1710.69 313.638 1709.98 313.932 1709.24 313.932H1691.1C1690.36 313.932 1689.65 313.638 1689.13 313.115C1688.6 312.592 1688.31 311.883 1688.31 311.144V302.246C1685.05 306.622 1680.76 310.131 1675.83 312.468C1670.9 314.804 1665.47 315.897 1660.01 315.65C1634.81 315.574 1616.02 296.48 1616.02 267.915ZM1688.58 267.915C1688.58 252.907 1678.31 241.908 1665.05 241.908C1651.8 241.908 1641.34 251.952 1641.34 267.915C1641.34 282.694 1651 293.119 1665.05 293.119C1668.25 293.072 1671.41 292.381 1674.34 291.087C1677.26 289.793 1679.9 287.923 1682.09 285.589C1684.28 283.255 1685.97 280.504 1687.07 277.5C1688.18 274.496 1688.66 271.301 1688.5 268.105L1688.58 267.915Z" fill="white"/>
<path d="M1288.48 182.449C1304.16 182.287 1319.42 187.578 1331.63 197.419C1332.17 197.879 1332.53 198.523 1332.62 199.227C1332.72 199.93 1332.56 200.646 1332.17 201.238L1320.4 217.697C1320.17 218.021 1319.87 218.293 1319.52 218.496C1319.18 218.698 1318.79 218.827 1318.39 218.874C1317.99 218.92 1317.59 218.884 1317.21 218.767C1316.82 218.65 1316.47 218.454 1316.16 218.193C1308.53 211.42 1298.69 207.66 1288.48 207.615C1263.73 207.615 1247.65 225.64 1247.65 248.935C1247.65 272.23 1264.08 290.178 1288.1 290.178C1298.44 290.205 1308.41 286.348 1316.05 279.371C1316.35 279.108 1316.7 278.91 1317.09 278.79C1317.47 278.67 1317.87 278.63 1318.27 278.673C1318.67 278.716 1319.05 278.841 1319.4 279.04C1319.75 279.239 1320.05 279.508 1320.29 279.829L1331.94 296.136C1332.34 296.725 1332.51 297.443 1332.41 298.149C1332.31 298.855 1331.95 299.499 1331.4 299.955C1319.21 310.006 1303.9 315.513 1288.1 315.536C1247.5 315.536 1219.78 288.804 1219.78 248.859C1219.78 210.479 1245.78 182.449 1288.48 182.449Z" fill="white"/>
<path d="M239.248 379.884C207.66 379.716 177.39 367.204 154.902 345.021C132.414 322.837 119.491 292.74 118.893 261.158C118.295 229.575 130.069 199.011 151.7 175.992C173.332 152.972 203.107 139.323 234.665 137.959C235.285 137.939 235.902 138.043 236.481 138.266C237.059 138.489 237.587 138.826 238.032 139.258C238.478 139.689 238.832 140.205 239.073 140.776C239.315 141.347 239.439 141.96 239.439 142.58V161.98C239.44 163.173 238.979 164.32 238.154 165.182C237.328 166.043 236.201 166.551 235.009 166.601C217.128 167.427 199.872 173.432 185.342 183.886C170.812 194.34 159.633 208.792 153.166 225.483C146.7 242.175 145.224 260.386 148.918 277.901C152.613 295.416 161.319 311.479 173.976 324.136C186.633 336.794 202.697 345.499 220.212 349.194C237.726 352.888 255.937 351.413 272.629 344.946C289.32 338.479 303.772 327.301 314.226 312.77C324.68 298.24 330.686 280.984 331.512 263.103C331.551 261.911 332.05 260.78 332.904 259.947C333.758 259.114 334.901 258.644 336.094 258.635H355.494C356.115 258.629 356.732 258.75 357.305 258.99C357.878 259.23 358.397 259.584 358.829 260.03C359.261 260.477 359.598 261.006 359.819 261.587C360.04 262.168 360.141 262.788 360.115 263.409C359.006 294.707 345.78 324.35 323.229 346.081C300.678 367.813 270.566 379.933 239.248 379.884V379.884Z" fill="white"/>
<path d="M239.439 315.574C224.749 315.668 210.594 310.066 199.948 299.944C189.301 289.822 182.992 275.968 182.344 261.292C181.697 246.616 186.762 232.26 196.475 221.24C206.189 210.219 219.795 203.392 234.437 202.192C235.075 202.139 235.717 202.219 236.322 202.428C236.928 202.636 237.483 202.968 237.954 203.403C238.424 203.837 238.799 204.365 239.055 204.952C239.311 205.539 239.441 206.173 239.439 206.813V226.213C239.457 227.316 239.083 228.389 238.384 229.242C237.685 230.095 236.705 230.673 235.62 230.872C230.415 231.573 225.509 233.717 221.456 237.059C217.404 240.4 214.366 244.808 212.685 249.785C211.004 254.762 210.748 260.109 211.945 265.223C213.141 270.338 215.744 275.016 219.458 278.731C223.172 282.445 227.851 285.047 232.965 286.244C238.08 287.441 243.427 287.184 248.404 285.504C253.381 283.823 257.788 280.785 261.13 276.732C264.472 272.68 266.615 267.774 267.317 262.568C267.507 261.486 268.077 260.508 268.924 259.808C269.771 259.108 270.839 258.733 271.938 258.749H291.338C291.978 258.747 292.612 258.878 293.199 259.134C293.786 259.39 294.313 259.765 294.748 260.235C295.182 260.705 295.514 261.261 295.723 261.866C295.931 262.472 296.011 263.114 295.958 263.752C294.726 277.894 288.238 291.06 277.776 300.653C267.313 310.247 253.634 315.57 239.439 315.574Z" fill="white"/>
<path d="M351.178 234.996C350.105 212.026 340.513 190.279 324.274 173.997C308.035 157.715 286.313 148.067 263.345 146.933C262.149 146.884 261.018 146.378 260.186 145.517C259.354 144.657 258.886 143.509 258.877 142.313V122.913C258.876 122.293 259.001 121.679 259.242 121.109C259.484 120.538 259.838 120.021 260.284 119.59C260.729 119.159 261.257 118.822 261.835 118.599C262.413 118.376 263.031 118.272 263.65 118.292C294.138 119.471 323.059 132.107 344.636 153.678C366.214 175.249 378.86 204.166 380.049 234.653C380.069 235.272 379.965 235.89 379.742 236.468C379.519 237.047 379.182 237.574 378.751 238.019C378.319 238.464 377.803 238.819 377.232 239.06C376.661 239.302 376.048 239.427 375.428 239.426H356.028C355.418 239.457 354.808 239.366 354.233 239.16C353.658 238.953 353.13 238.635 352.679 238.223C352.228 237.811 351.863 237.314 351.606 236.76C351.348 236.206 351.203 235.607 351.178 234.996V234.996Z" fill="#FF9E1A"/>
<path d="M263.879 211.587C262.557 211.425 261.33 210.813 260.405 209.853C259.48 208.893 258.913 207.645 258.8 206.317V187.222C258.798 186.582 258.929 185.948 259.185 185.361C259.44 184.774 259.815 184.246 260.286 183.812C260.756 183.377 261.312 183.046 261.917 182.837C262.523 182.629 263.165 182.549 263.803 182.602C277.131 183.753 289.628 189.563 299.098 199.012C308.568 208.461 314.406 220.945 315.587 234.271C315.645 234.907 315.57 235.548 315.366 236.154C315.162 236.759 314.834 237.315 314.403 237.786C313.971 238.257 313.446 238.633 312.86 238.889C312.275 239.145 311.643 239.276 311.004 239.273H290.688C289.761 239.283 288.863 238.954 288.16 238.35C287.457 237.746 286.998 236.907 286.869 235.989C286.132 230.005 283.505 224.412 279.37 220.023C275.236 215.634 269.809 212.679 263.879 211.587Z" fill="#FF9E1A"/>
</svg>
